<svg xmlns="http://www.w3.org/2000/svg" viewBox="0 0 1407.8 244.6" width="1408" height="245">
<g transform="scale(1.5480) translate(-11,-50) scale(0.25)"><path fill="#62C5C5" fill-opacity="0.92" fill-rule="evenodd" d="M138.1,361.2C136.3,359.2 131.9,353.6 128.3,348.8C124.7,343.9 121.4,340.0 121.0,340.0C120.6,340.0 119.8,338.9 119.2,337.5C118.5,336.1 114.1,330.1 109.2,324.2C104.4,318.3 99.6,312.2 98.5,310.5C96.0,306.5 95.0,305.3 91.7,301.9C87.2,297.4 79.0,286.9 79.0,285.6C79.0,285.0 76.0,281.4 72.4,277.6C68.8,273.8 64.1,268.0 61.9,264.6C59.7,261.3 56.1,256.6 53.9,254.2C51.6,251.9 48.5,248.0 46.9,245.7L44.0,241.5L44.0,222.3C44.0,203.6 44.1,203.1 46.2,201.6C48.2,200.2 54.5,200.0 95.5,200.0C123.4,200.0 143.1,200.4 144.0,201.0C145.3,201.8 145.5,212.1 145.8,282.1C146.0,341.0 145.7,362.6 144.9,363.6C143.2,365.7 141.8,365.2 138.1,361.2Z"/><path fill="#62C5C5" fill-opacity="0.94" fill-rule="evenodd" d="M323.2,596.7C322.1,595.5 320.4,592.9 319.6,591.0C318.8,589.0 315.4,584.5 312.0,581.0C306.0,574.7 299.0,565.4 299.0,563.7C299.0,563.2 296.1,560.0 292.5,556.4C288.9,552.8 285.3,548.5 284.4,546.7C282.6,543.2 280.4,540.4 273.4,532.4C268.0,526.2 259.5,514.9 258.9,513.3C258.7,512.6 255.2,508.5 251.2,504.0C247.1,499.6 242.3,493.5 240.5,490.4C238.6,487.3 235.5,483.3 233.5,481.3L229.9,477.9L229.9,340.7L229.9,203.5L232.1,201.8C234.1,200.1 237.9,200.0 280.9,200.0C316.7,200.0 328.0,200.3 329.3,201.3C330.9,202.4 331.0,215.3 331.3,400.2C331.5,564.1 331.3,598.1 330.2,598.5C327.5,599.5 325.3,599.0 323.2,596.7Z"/><path fill="#63C2C2" fill-opacity="0.59" fill-rule="evenodd" d="M508.6,829.0C506.6,826.8 505.0,824.6 505.0,824.1C505.0,823.7 503.8,821.9 502.2,820.3C500.7,818.6 497.2,814.2 494.5,810.5C491.8,806.9 487.5,801.7 485.2,799.2C482.8,796.6 480.0,792.9 479.0,791.0C478.0,789.1 473.9,783.9 470.0,779.5C466.0,775.1 461.6,769.5 460.2,767.0C458.8,764.5 456.0,760.9 454.0,759.0C452.1,757.1 447.3,751.2 443.3,746.0C439.4,740.8 432.7,732.5 428.6,727.5C424.4,722.5 420.1,716.7 419.0,714.5C417.1,710.6 417.0,707.0 417.0,457.4C417.0,253.6 417.2,204.0 418.3,202.6C419.5,201.0 422.9,200.9 466.5,201.0C502.6,201.0 513.8,201.3 514.7,202.3C515.7,203.3 516.0,267.9 516.0,517.3C516.0,689.9 515.8,831.5 515.5,832.1C514.3,833.9 512.2,832.9 508.6,829.0Z"/></g>
<g transform="translate(67.82,-50) scale(1)" ><path transform="scale(0.25)" fill="#3D3D3D" fill-rule="evenodd" d="M614.3,842.2C613.1,842.0 611.7,841.3 611.1,840.6C609.5,838.7 609.6,204.2 611.1,202.3C612.0,201.2 622.5,201.0 668.4,201.0C723.3,201.0 724.7,201.0 726.8,203.0C728.0,204.1 729.4,206.9 730.1,209.2C730.7,211.5 732.0,215.0 733.0,217.0C735.9,222.6 740.0,233.8 740.0,236.2C740.0,237.3 740.9,239.7 741.9,241.4C742.9,243.1 744.1,246.1 744.5,248.0C744.9,249.9 746.2,253.8 747.5,256.5C748.7,259.2 750.9,264.1 752.4,267.3C753.8,270.4 755.0,273.8 755.0,274.8C755.0,275.7 756.2,278.8 757.5,281.5C758.9,284.2 760.0,287.6 760.0,288.9C760.0,290.2 761.1,293.9 762.5,297.1C763.9,300.4 766.1,305.6 767.5,308.9C768.9,312.1 770.0,315.4 770.0,316.1C770.0,316.9 771.2,319.3 772.5,321.5C773.9,323.7 775.0,326.4 775.0,327.5C775.0,328.6 776.1,331.9 777.5,334.8C778.9,337.8 780.0,341.0 780.0,342.1C780.0,344.2 783.9,354.7 787.6,362.5C788.9,365.3 790.0,368.1 790.0,368.7C790.0,369.4 791.1,372.3 792.4,375.2C796.4,384.1 800.0,393.9 800.0,396.2C800.0,397.3 800.9,399.7 801.9,401.4C802.9,403.1 804.1,406.1 804.5,408.0C804.9,409.9 806.2,413.8 807.5,416.5C812.3,427.1 814.9,433.6 815.5,436.7C815.9,438.4 816.8,440.4 817.5,441.0C818.3,441.6 819.2,444.3 819.5,446.8C819.9,449.4 821.0,453.3 822.0,455.5C823.8,459.3 824.9,462.1 829.1,473.7C830.1,476.5 831.8,480.3 832.9,482.2C833.9,484.0 835.1,487.1 835.5,489.0C835.9,490.9 837.1,494.2 838.1,496.2C839.2,498.3 840.0,501.0 840.0,502.2C840.0,503.5 840.8,506.1 841.9,508.0C842.9,509.9 844.1,513.1 844.5,515.0C844.9,516.9 845.9,519.6 846.7,520.8C847.5,522.1 849.0,525.5 850.0,528.3C850.9,531.2 852.8,536.0 854.0,539.0C858.9,550.9 860.0,554.0 860.0,556.0C860.0,557.2 860.9,559.8 861.9,561.8C863.0,563.8 864.5,567.5 865.3,570.0C866.1,572.5 868.4,578.3 870.5,583.0C872.5,587.7 874.6,593.3 875.2,595.5C875.7,597.7 876.7,600.2 877.5,601.0C878.2,601.8 879.3,605.1 879.9,608.3C880.5,611.5 881.6,615.3 882.5,616.8C883.3,618.3 884.7,621.5 885.6,624.0C890.2,636.7 891.1,639.1 892.9,642.2C893.9,644.0 895.1,647.1 895.5,649.0C895.9,650.9 897.0,654.1 898.0,656.0C898.9,657.9 900.0,661.3 900.4,663.4C900.8,665.5 901.7,668.2 902.5,669.4C903.2,670.6 904.1,673.1 904.5,675.0C904.9,676.9 905.8,679.5 906.6,680.7C907.4,682.0 909.2,686.0 910.6,689.7C912.0,693.5 914.3,699.4 915.7,703.0C917.1,706.6 918.7,711.3 919.2,713.5C919.8,715.7 921.1,719.3 922.1,721.5C923.2,723.7 924.4,727.3 924.8,729.5C925.4,732.4 926.1,733.6 927.6,733.8C930.5,734.2 932.7,731.3 934.4,724.6C935.3,721.3 936.6,717.7 937.4,716.5C938.2,715.3 939.3,711.7 939.9,708.5C940.5,705.3 941.6,701.9 942.4,701.1C943.2,700.2 944.3,697.7 944.8,695.5C945.4,693.3 947.5,687.7 949.5,683.0C951.6,678.3 953.9,672.5 954.7,670.0C955.5,667.5 957.0,663.7 958.0,661.5C959.0,659.3 960.2,655.7 960.8,653.5C962.3,647.7 965.5,639.1 967.9,634.5C969.1,632.4 970.0,629.9 970.0,629.1C970.0,628.2 971.1,625.3 972.4,622.5C976.1,614.7 980.0,604.2 980.0,602.1C980.0,601.0 981.1,597.8 982.5,594.8C983.9,591.9 985.0,588.9 985.0,588.1C985.0,587.3 986.1,584.4 987.4,581.6C993.3,568.8 995.0,564.9 995.0,563.6C995.0,562.8 996.1,559.8 997.5,556.8C998.9,553.9 1000.0,550.4 1000.0,549.0C1000.0,547.6 1001.1,544.2 1002.5,541.5C1003.8,538.8 1005.0,536.0 1005.0,535.4C1005.0,534.2 1008.3,526.4 1012.5,517.5C1013.8,514.8 1015.1,510.9 1015.5,509.0C1015.9,507.1 1016.8,504.5 1017.6,503.3C1018.4,502.1 1019.5,498.7 1020.1,495.8C1020.8,492.9 1021.9,489.6 1022.6,488.5C1023.4,487.4 1024.0,485.9 1024.0,485.0C1024.0,484.1 1025.3,480.8 1027.0,477.5C1028.6,474.2 1030.0,470.8 1030.0,470.0C1030.0,469.2 1031.1,466.3 1032.4,463.5C1036.1,455.7 1040.0,445.2 1040.0,443.1C1040.0,442.0 1041.1,438.8 1042.5,435.8C1043.9,432.9 1045.0,429.6 1045.0,428.5C1045.0,427.4 1046.1,424.7 1047.5,422.5C1048.8,420.3 1050.0,417.8 1050.0,417.0C1050.0,416.2 1051.2,413.2 1052.5,410.5C1053.9,407.8 1055.0,404.8 1055.0,404.0C1055.0,403.2 1056.2,400.2 1057.5,397.5C1058.9,394.8 1060.0,391.4 1060.0,390.1C1060.0,388.7 1060.9,385.8 1061.9,383.6C1063.8,379.7 1064.8,377.1 1069.1,365.3C1070.1,362.5 1071.8,358.7 1072.9,356.8C1073.9,355.0 1075.1,351.9 1075.5,350.0C1075.9,348.1 1077.0,344.9 1078.0,343.0C1078.9,341.1 1080.0,337.7 1080.4,335.6C1080.8,333.5 1081.7,330.8 1082.5,329.6C1083.2,328.4 1084.1,325.9 1084.5,324.0C1084.9,322.1 1085.7,320.0 1086.2,319.3C1087.1,318.2 1088.8,314.0 1095.0,298.0C1095.9,295.5 1097.4,291.8 1098.4,289.8C1099.3,287.7 1100.0,285.1 1100.0,284.0C1100.0,282.9 1100.8,280.3 1101.9,278.2C1102.9,276.2 1104.1,273.0 1104.5,271.1C1105.1,268.1 1107.7,261.9 1113.1,250.4C1114.1,248.1 1115.0,245.7 1115.0,244.9C1115.0,244.1 1116.2,241.2 1117.5,238.5C1118.9,235.8 1120.0,232.4 1120.0,231.0C1120.0,229.6 1121.1,226.1 1122.5,223.2C1123.9,220.2 1125.0,217.4 1125.0,216.9C1125.0,215.2 1131.2,202.5 1132.4,201.8C1133.0,201.4 1158.8,201.0 1189.7,201.0C1239.4,201.0 1246.0,201.2 1247.4,202.6C1248.9,204.0 1249.0,234.4 1249.0,522.0L1249.0,839.9L1246.9,841.0C1244.1,842.6 1171.9,842.4 1168.5,840.8L1166.0,839.7L1166.1,584.1C1166.1,443.5 1166.5,326.4 1166.9,323.7C1167.8,318.4 1166.4,315.2 1163.6,316.3C1161.7,317.0 1160.6,319.6 1159.2,326.5C1157.9,332.6 1154.7,342.0 1152.7,345.2C1151.9,346.4 1150.5,350.0 1149.6,353.1C1148.7,356.2 1147.3,359.3 1146.5,360.0C1145.7,360.7 1145.0,362.1 1145.0,363.1C1145.0,364.1 1143.9,367.8 1142.6,371.2C1139.4,379.7 1137.1,386.6 1135.5,392.0C1134.8,394.5 1133.3,398.1 1132.1,400.0C1131.0,401.9 1130.0,404.2 1130.0,405.0C1130.0,405.8 1128.9,408.8 1127.5,411.5C1126.2,414.2 1125.0,417.0 1125.0,417.7C1125.0,418.3 1123.9,421.2 1122.5,424.2C1121.1,427.1 1120.0,430.6 1120.0,432.0C1120.0,433.4 1118.9,436.8 1117.5,439.5C1116.2,442.2 1115.0,445.1 1115.0,445.8C1115.0,447.1 1111.5,455.5 1107.0,465.5C1106.0,467.7 1104.9,471.0 1104.5,472.9C1104.1,474.8 1102.9,477.7 1101.9,479.4C1100.9,481.1 1100.0,483.5 1100.0,484.7C1100.0,487.1 1096.0,498.2 1093.0,504.0C1092.1,505.9 1090.5,510.0 1089.6,513.1C1088.7,516.2 1087.3,519.3 1086.5,520.0C1085.7,520.7 1085.0,522.1 1085.0,523.2C1085.0,524.2 1083.9,527.7 1082.5,531.0C1081.1,534.3 1080.0,537.8 1080.0,538.8C1080.0,539.8 1079.1,542.3 1078.0,544.5C1076.9,546.6 1075.7,550.0 1075.4,551.9C1075.1,553.9 1073.9,556.8 1072.8,558.4C1071.6,560.0 1070.4,562.7 1069.9,564.4C1069.1,567.8 1064.8,578.7 1062.5,583.5C1061.7,585.1 1060.6,588.9 1060.0,591.9C1059.4,594.9 1058.5,597.9 1057.9,598.6C1057.3,599.3 1056.2,601.8 1055.5,604.2C1054.7,606.6 1052.5,612.3 1050.5,617.0C1048.4,621.7 1046.1,627.5 1045.3,630.0C1044.5,632.5 1043.0,636.2 1041.9,638.2C1040.9,640.2 1040.0,643.0 1040.0,644.4C1040.0,645.8 1038.4,650.9 1036.3,655.7C1034.3,660.5 1031.7,667.3 1030.5,670.7C1029.3,674.1 1027.6,677.9 1026.8,679.2C1026.0,680.5 1024.9,683.0 1024.5,684.9C1024.1,686.8 1022.9,690.1 1021.9,692.4C1020.9,694.6 1020.0,697.4 1020.0,698.5C1020.0,699.6 1019.2,702.1 1018.2,704.0C1017.1,705.9 1015.8,709.7 1015.1,712.4C1014.4,715.1 1013.0,718.4 1011.9,719.8C1010.9,721.2 1010.0,723.1 1010.0,724.2C1010.0,725.2 1008.9,728.3 1007.5,731.0C1006.1,733.7 1005.0,736.5 1005.0,737.3C1005.0,738.0 1004.1,740.4 1002.9,742.5C1001.8,744.7 1000.4,749.0 999.9,752.0C999.3,755.0 998.2,758.2 997.5,759.0C996.7,759.8 995.7,762.3 995.1,764.5C994.1,768.9 988.4,782.8 987.0,784.5C986.5,785.0 985.6,787.8 984.9,790.5C984.3,793.3 982.9,796.9 982.0,798.5C981.0,800.1 980.0,803.3 979.7,805.5C979.3,807.7 978.1,811.3 977.0,813.5C975.9,815.6 975.0,818.1 975.0,818.8C975.0,819.6 974.1,821.7 973.1,823.4C972.0,825.1 970.6,828.8 969.9,831.5C968.7,836.6 966.9,839.5 963.8,841.1C962.8,841.7 947.7,842.1 929.1,842.1C900.9,842.1 895.7,841.9 893.1,840.5C891.4,839.7 890.0,838.3 890.0,837.5C890.0,835.8 885.8,824.5 882.9,818.5C881.9,816.3 880.6,812.2 880.1,809.5C879.5,806.8 878.2,802.7 877.0,800.5C875.9,798.4 875.0,795.9 875.0,795.0C875.0,794.2 873.8,791.2 872.5,788.5C871.1,785.8 870.0,783.0 870.0,782.4C870.0,781.7 868.9,779.2 867.5,776.9C866.1,774.5 865.0,771.6 865.0,770.5C865.0,769.4 863.9,766.1 862.5,763.2C861.1,760.2 860.0,757.0 860.0,756.0C860.0,754.0 854.4,739.7 851.6,734.5C850.7,732.9 850.0,730.8 850.0,729.9C850.0,729.1 848.9,726.2 847.6,723.4C846.2,720.7 844.7,716.6 844.0,714.3C843.4,712.0 842.5,709.8 842.1,709.5C841.6,709.2 840.9,707.1 840.5,704.7C840.1,702.4 839.0,698.9 838.0,697.0C837.1,695.1 835.7,691.2 835.1,688.5C834.4,685.8 833.2,682.8 832.5,682.0C831.8,681.2 830.3,678.0 829.2,675.0C828.1,672.0 826.5,667.5 825.6,665.0C824.7,662.5 823.3,659.3 822.5,657.8C821.6,656.3 820.5,652.6 819.9,649.5C819.3,646.4 818.0,642.4 816.9,640.7C815.9,638.9 815.0,636.8 815.0,635.9C815.0,634.3 812.3,627.6 807.5,617.5C806.2,614.8 804.9,610.9 804.5,609.0C804.1,607.1 803.2,604.6 802.5,603.4C801.8,602.3 800.5,598.9 799.7,595.9C797.5,588.2 794.2,578.9 792.7,576.6C792.0,575.4 790.8,572.5 790.1,570.0C789.4,567.5 788.0,564.1 787.0,562.5C786.0,560.9 784.9,558.1 784.5,556.3C784.2,554.6 783.0,551.5 781.9,549.4C780.9,547.3 780.0,544.6 780.0,543.4C780.0,542.2 778.9,538.8 777.5,535.8C776.1,532.9 775.0,529.6 775.0,528.5C775.0,527.4 773.9,524.7 772.5,522.5C771.2,520.3 770.0,517.8 770.0,517.0C770.0,516.2 768.9,513.2 767.5,510.5C766.2,507.8 765.0,504.8 765.0,504.0C765.0,503.2 763.8,500.2 762.5,497.5C761.1,494.8 760.0,491.4 760.0,490.0C760.0,488.6 758.9,485.2 757.5,482.5C756.2,479.8 755.0,476.8 755.0,476.0C755.0,475.2 753.8,472.2 752.5,469.5C751.1,466.8 750.0,463.9 750.0,463.1C750.0,462.4 749.1,460.3 748.1,458.6C747.0,456.9 745.6,453.5 745.0,451.0C744.3,448.5 742.9,444.8 741.9,442.8C740.9,440.8 740.0,438.2 740.0,437.1C740.0,434.9 736.1,424.4 732.4,416.5C731.1,413.7 730.0,410.8 730.0,410.0C730.0,409.2 728.9,406.3 727.6,403.5C723.7,395.3 720.0,385.1 720.0,382.7C720.0,381.5 719.3,379.5 718.5,378.3C717.7,377.2 716.4,373.6 715.5,370.5C714.7,367.4 713.2,363.4 712.0,361.6C710.9,359.7 710.0,357.6 710.0,356.9C710.0,356.1 708.9,353.4 707.5,350.8C706.1,348.2 705.0,345.4 705.0,344.6C705.0,343.8 703.9,340.8 702.5,337.8C701.1,334.9 700.0,330.8 700.0,328.7C700.0,324.4 698.2,320.4 695.1,317.6C692.2,315.0 690.5,316.7 690.6,322.3C690.6,324.6 690.7,441.9 690.8,582.9C691.0,796.8 690.8,839.6 689.7,840.7C688.6,841.8 681.0,842.1 652.4,842.3C632.7,842.4 615.5,842.4 614.3,842.2ZM1565.6,842.2C1406.6,842.1 1347.3,841.7 1346.3,840.9C1344.5,839.3 1344.3,204.1 1346.2,202.2C1347.1,201.3 1397.5,201.0 1566.6,201.0C1764.6,201.0 1786.0,201.2 1787.4,202.6C1788.8,203.9 1789.0,208.5 1789.0,237.0C1789.0,267.8 1788.9,269.9 1787.1,272.1L1785.2,274.5L1609.4,274.8C1482.1,274.9 1433.3,275.3 1432.3,276.1C1431.2,277.0 1431.0,294.5 1431.0,375.6L1431.0,473.9L1433.2,475.4C1435.2,476.8 1452.5,477.0 1598.0,477.0C1729.3,477.0 1761.0,477.2 1762.4,478.3C1764.0,479.5 1764.1,482.1 1764.0,513.0C1764.0,535.4 1763.6,546.8 1762.8,547.7C1762.0,548.8 1732.2,549.0 1599.9,549.0C1488.1,549.0 1437.3,549.3 1435.3,550.1C1433.8,550.6 1432.2,551.7 1431.8,552.3C1431.4,553.0 1431.0,601.5 1431.0,660.2L1431.0,766.9L1433.2,768.4C1435.2,769.8 1453.8,770.0 1611.6,770.0C1780.9,770.0 1787.8,770.1 1789.3,771.8C1790.8,773.5 1791.0,777.3 1791.0,806.3C1791.0,834.6 1790.8,839.1 1789.4,840.4C1788.6,841.3 1787.5,842.0 1787.0,842.0C1786.5,842.0 1785.6,842.1 1784.8,842.2C1784.1,842.4 1685.4,842.4 1565.6,842.2ZM3309.5,842.3C3195.7,842.1 3102.2,841.6 3101.8,841.2C3100.9,840.3 3100.7,203.4 3101.5,201.9C3101.9,201.4 3114.5,201.0 3130.9,201.0C3154.2,201.0 3160.0,201.3 3160.9,202.4C3161.7,203.4 3162.0,278.0 3162.0,494.6C3162.0,757.1 3162.1,785.7 3163.5,787.8L3165.1,790.0L3342.0,790.0C3515.9,790.0 3518.9,790.0 3520.0,791.9C3520.6,793.1 3521.0,802.9 3521.0,816.8C3521.0,837.7 3520.8,839.8 3519.2,841.3C3518.2,842.3 3517.2,842.9 3516.9,842.8C3516.7,842.6 3423.4,842.4 3309.5,842.3ZM4609.6,842.3C4591.8,842.1 4582.2,841.6 4581.3,840.9C4580.2,839.9 4580.0,785.4 4580.0,521.6C4580.0,346.7 4580.4,202.9 4580.8,202.2C4581.5,201.3 4588.2,201.0 4611.1,201.2L4640.5,201.5L4641.0,519.5C4641.3,706.9 4641.1,838.3 4640.6,839.5C4639.7,841.5 4637.9,843.1 4637.0,842.8C4636.7,842.6 4624.4,842.4 4609.6,842.3ZM5320.0,842.0C5285.4,841.5 5280.0,841.0 5280.0,838.2C5280.0,837.1 5269.3,823.5 5264.2,818.0C5261.9,815.5 5260.0,813.1 5260.0,812.7C5260.0,811.4 5255.0,805.0 5248.3,797.8C5244.9,794.1 5241.3,789.6 5240.4,787.8C5239.5,786.0 5236.2,781.8 5233.1,778.5C5230.0,775.1 5225.9,770.3 5224.0,767.7C5219.6,761.7 5205.7,744.3 5202.7,741.0C5201.4,739.6 5198.7,735.9 5196.5,732.7C5194.4,729.6 5190.0,724.2 5186.8,720.7C5183.5,717.3 5180.2,713.1 5179.4,711.3C5178.5,709.6 5174.3,704.2 5169.9,699.4C5165.5,694.6 5161.2,689.3 5160.3,687.6C5159.4,685.9 5156.3,681.9 5153.4,678.7C5150.5,675.6 5146.8,671.3 5145.3,669.2C5139.3,661.1 5123.6,641.4 5122.2,640.3C5121.4,639.6 5120.2,638.2 5119.6,637.2C5116.5,631.8 5112.7,626.9 5107.5,621.6C5104.4,618.3 5101.0,614.0 5100.0,612.1C5099.0,610.1 5094.5,604.5 5090.0,599.5C5085.5,594.5 5081.1,589.1 5080.3,587.5C5079.4,585.9 5076.0,581.6 5072.7,578.0C5069.4,574.4 5066.0,570.4 5065.2,569.0C5064.3,567.6 5060.9,563.1 5057.5,559.0C5054.2,554.9 5049.5,548.9 5047.1,545.8C5044.8,542.7 5042.5,540.0 5042.2,539.8C5041.8,539.6 5039.8,536.9 5037.6,533.8C5035.5,530.7 5031.1,525.3 5027.8,521.8C5024.5,518.3 5021.2,514.3 5020.4,512.8C5019.6,511.2 5018.5,510.0 5017.9,510.0C5016.5,510.0 5008.7,516.8 4995.8,529.2C4990.2,534.6 4985.3,539.0 4984.8,539.0C4984.4,539.0 4980.3,542.7 4975.8,547.2C4971.2,551.8 4964.8,557.9 4961.5,560.9C4958.2,563.8 4952.8,568.8 4949.5,571.9C4946.2,575.1 4940.6,580.3 4937.0,583.5C4931.2,588.7 4910.8,607.7 4899.3,618.6L4895.0,622.7L4895.0,731.3C4895.0,837.7 4895.0,840.0 4893.1,841.0C4891.9,841.6 4880.7,842.0 4863.7,842.0C4841.7,842.0 4836.0,841.7 4835.1,840.6C4833.5,838.7 4833.5,204.3 4835.1,202.3C4836.0,201.3 4842.0,201.0 4864.1,201.0C4888.0,201.0 4892.1,201.2 4893.4,202.6C4894.8,204.0 4895.0,220.8 4895.0,373.0C4895.0,485.6 4895.3,542.1 4896.0,542.5C4896.6,542.8 4898.2,542.2 4899.7,541.1C4902.3,539.0 4920.4,522.2 4935.4,507.8C4939.9,503.5 4945.3,498.7 4947.5,497.0C4949.7,495.3 4954.7,490.7 4958.7,486.7C4962.6,482.7 4971.4,474.6 4978.1,468.5C4984.8,462.4 4993.9,453.8 4998.4,449.4C5002.9,444.9 5007.4,440.8 5008.5,440.2C5010.4,439.3 5017.1,433.0 5040.5,410.2C5046.3,404.6 5051.6,400.0 5052.1,400.0C5052.7,400.0 5056.8,396.3 5061.4,391.8C5065.9,387.2 5075.4,378.3 5082.4,372.0C5089.5,365.7 5098.7,357.1 5102.9,353.0C5107.1,348.9 5116.7,339.9 5124.4,333.0C5132.0,326.1 5140.5,318.3 5143.3,315.6C5146.2,313.0 5158.2,302.0 5170.0,291.1C5181.8,280.3 5194.2,268.8 5197.6,265.5C5201.0,262.2 5209.8,254.1 5217.1,247.5C5224.4,240.9 5234.1,231.8 5238.5,227.2C5243.0,222.7 5247.2,219.0 5247.8,219.0C5248.4,219.0 5252.8,215.1 5257.5,210.2L5266.1,201.5L5304.8,201.0C5326.1,200.7 5344.3,200.9 5345.2,201.3C5346.2,201.7 5347.0,202.5 5347.0,203.0C5347.0,204.5 5333.9,218.0 5331.0,219.5C5328.6,220.7 5319.1,229.6 5301.7,246.8C5297.9,250.5 5292.7,255.2 5290.2,257.3C5287.6,259.4 5281.1,265.3 5275.7,270.3C5270.3,275.4 5261.4,283.6 5256.1,288.5C5250.7,293.4 5241.2,302.2 5235.0,308.0C5228.7,313.8 5219.8,322.1 5215.1,326.5C5204.5,336.4 5183.1,356.1 5177.0,361.5C5174.5,363.7 5169.1,368.7 5165.0,372.7C5160.9,376.7 5154.4,382.6 5150.7,385.8C5146.9,389.1 5143.2,392.7 5142.3,393.9C5141.5,395.1 5138.5,397.9 5135.7,400.2C5130.0,404.6 5113.1,420.2 5101.0,432.0C5096.7,436.1 5090.7,441.5 5087.5,444.0C5084.3,446.5 5080.9,449.8 5079.9,451.3C5079.0,452.9 5075.3,456.4 5071.6,459.1C5063.1,465.5 5063.1,466.8 5071.2,476.0C5074.7,479.9 5079.3,485.7 5081.5,488.9C5083.7,492.1 5088.4,497.8 5091.9,501.6C5095.3,505.4 5099.0,510.1 5100.1,512.0C5101.1,513.9 5104.6,518.4 5107.9,521.9C5111.2,525.4 5115.6,530.8 5117.7,533.9C5119.8,537.0 5121.8,539.6 5122.2,539.8C5122.5,540.0 5124.8,542.7 5127.1,545.8C5129.5,548.9 5134.2,554.9 5137.5,559.0C5140.9,563.1 5144.3,567.6 5145.2,569.0C5146.0,570.4 5149.4,574.4 5152.7,578.0C5156.0,581.6 5159.4,585.9 5160.3,587.5C5161.1,589.1 5165.4,594.5 5169.9,599.4C5174.3,604.3 5178.6,609.7 5179.4,611.5C5180.3,613.3 5182.9,616.7 5185.2,619.1C5187.6,621.5 5191.8,626.6 5194.7,630.5C5197.5,634.3 5201.0,638.9 5202.3,640.5C5207.1,646.2 5220.5,663.0 5225.7,669.7C5228.6,673.5 5232.7,678.3 5234.8,680.5C5237.0,682.7 5239.5,686.0 5240.4,687.7C5241.3,689.5 5244.6,693.8 5247.8,697.2C5251.0,700.7 5255.8,706.6 5258.5,710.5C5261.1,714.4 5265.4,719.8 5267.9,722.6C5270.4,725.4 5274.1,729.8 5276.0,732.4C5279.1,736.5 5290.4,750.7 5297.6,759.5C5299.0,761.1 5302.5,765.7 5305.4,769.6C5308.3,773.5 5312.8,778.9 5315.4,781.5C5317.9,784.2 5320.0,786.8 5320.0,787.2C5320.0,788.6 5324.9,794.9 5331.7,802.2C5335.1,805.9 5338.7,810.4 5339.6,812.2C5340.5,814.0 5344.0,818.4 5347.3,822.0C5350.6,825.6 5354.0,829.6 5354.9,831.0C5355.8,832.3 5357.5,834.4 5358.7,835.7C5360.0,836.9 5361.0,838.5 5361.0,839.3C5361.0,841.2 5358.9,843.0 5357.1,842.8C5356.2,842.7 5339.5,842.3 5320.0,842.0ZM1884.2,840.7C1882.5,838.7 1882.4,204.4 1884.1,202.3C1885.1,201.2 1906.3,201.0 2006.9,201.0L2128.5,201.0L2153.0,203.5C2166.5,204.9 2178.6,206.4 2180.0,206.9C2181.4,207.4 2184.5,208.1 2187.0,208.4C2192.8,209.2 2218.8,215.6 2226.2,218.1C2229.4,219.1 2233.0,220.0 2234.2,220.0C2235.5,220.0 2238.1,220.8 2240.0,221.9C2241.9,222.9 2245.1,224.1 2247.0,224.5C2248.9,224.9 2255.2,227.6 2261.0,230.5C2266.8,233.4 2276.2,238.1 2281.9,240.9C2291.6,245.8 2299.0,250.5 2299.8,252.3C2300.3,253.4 2310.5,260.0 2311.8,260.0C2312.4,260.0 2317.8,264.7 2324.0,270.5C2330.1,276.3 2335.4,281.0 2335.9,281.0C2336.4,281.0 2338.7,283.6 2341.1,286.8C2343.5,289.9 2347.4,294.5 2349.9,297.0C2354.8,301.9 2357.1,304.9 2361.4,312.5C2363.0,315.2 2365.6,319.0 2367.2,320.8C2368.7,322.6 2370.0,324.6 2370.0,325.2C2370.0,325.8 2371.1,327.8 2372.5,329.6C2373.9,331.4 2375.0,333.5 2375.0,334.2C2375.0,335.0 2376.1,337.1 2377.5,339.0C2378.9,340.9 2380.0,343.3 2380.0,344.4C2380.0,345.6 2380.8,347.9 2381.8,349.5C2382.8,351.1 2384.0,353.9 2384.4,355.5C2384.8,357.1 2385.9,359.6 2386.8,361.0C2390.5,366.6 2397.3,388.6 2400.0,403.9C2401.1,409.5 2402.4,415.6 2402.9,417.4C2403.5,419.1 2404.4,424.1 2404.9,428.5C2405.4,432.9 2406.5,440.8 2407.4,446.0C2409.9,460.7 2410.7,475.9 2410.7,508.5C2410.7,537.6 2409.1,567.4 2407.0,577.4C2406.4,580.2 2405.5,586.9 2404.9,592.4C2404.4,598.0 2403.3,605.0 2402.5,608.0C2401.8,611.0 2400.7,617.4 2400.0,622.2C2399.4,627.0 2398.0,633.7 2397.0,637.1C2395.9,640.5 2395.0,644.0 2395.0,644.9C2395.0,646.7 2388.7,664.7 2386.6,668.8C2385.9,670.3 2385.0,673.1 2384.6,675.1C2384.2,677.2 2383.3,679.3 2382.5,680.0C2381.8,680.6 2380.7,683.3 2380.1,686.0C2379.5,688.7 2378.1,692.6 2377.0,694.7C2375.9,696.8 2375.0,699.0 2375.0,699.6C2375.0,700.2 2374.3,701.3 2373.5,702.0C2372.7,702.7 2371.1,705.1 2370.0,707.4C2367.5,712.7 2364.6,717.7 2362.8,719.8C2362.0,720.7 2360.1,724.2 2358.5,727.5C2356.9,730.8 2353.3,736.0 2350.5,739.0C2347.6,742.0 2343.7,746.9 2341.6,749.9C2338.2,754.9 2313.4,780.0 2311.7,780.0C2310.7,780.0 2304.4,784.7 2298.2,790.0C2293.3,794.2 2289.2,796.7 2269.5,807.0C2265.1,809.3 2260.4,812.0 2259.0,813.0C2257.6,813.9 2249.3,817.1 2240.5,820.0C2231.7,822.9 2222.9,825.9 2221.0,826.8C2219.1,827.6 2214.1,829.1 2210.0,830.1C2205.9,831.1 2199.8,832.6 2196.5,833.5C2185.4,836.3 2167.4,839.0 2153.4,840.1C2145.2,840.7 2087.9,841.4 2012.4,841.7C1901.8,842.1 1885.2,842.0 1884.2,840.7ZM2414.2,841.3C2412.9,840.8 2412.5,836.4 2413.8,835.6C2414.6,835.1 2417.4,828.2 2422.5,814.0C2423.9,809.9 2426.2,804.2 2427.5,801.5C2428.9,798.8 2431.3,793.1 2433.0,789.0C2434.7,784.9 2436.7,780.1 2437.5,778.5C2438.3,776.9 2439.4,773.3 2440.0,770.6C2440.6,767.9 2441.7,764.5 2442.5,763.1C2443.2,761.7 2445.3,757.1 2447.0,753.0C2448.7,748.9 2451.3,743.2 2452.6,740.5C2454.8,736.1 2458.0,727.4 2464.1,710.3C2465.1,707.4 2467.6,701.3 2469.8,696.8C2471.9,692.2 2474.2,686.9 2474.9,684.9C2475.5,682.9 2476.9,679.6 2478.0,677.5C2479.1,675.3 2480.0,672.7 2480.0,671.7C2480.0,670.6 2482.2,664.8 2484.9,658.6C2487.6,652.5 2490.1,646.4 2490.5,645.0C2490.9,643.6 2492.1,641.3 2493.1,639.8C2494.2,638.4 2495.0,636.7 2495.0,636.1C2495.0,635.5 2496.1,632.2 2497.4,628.8C2498.7,625.3 2501.0,619.1 2502.5,615.0C2504.9,608.2 2509.1,598.7 2512.5,592.0C2513.2,590.6 2514.3,587.7 2515.0,585.5C2515.7,583.3 2517.1,579.9 2518.1,578.0C2519.2,576.1 2520.0,573.7 2520.0,572.8C2520.0,571.8 2521.8,566.6 2524.1,561.3C2526.3,555.9 2529.1,549.2 2530.2,546.5C2531.3,543.8 2532.6,541.0 2533.2,540.3C2533.7,539.6 2534.8,537.2 2535.5,534.8C2536.3,532.4 2538.1,527.4 2539.6,523.5C2541.1,519.6 2543.2,513.8 2544.4,510.5C2545.6,507.2 2547.2,503.4 2548.0,502.0C2549.9,498.6 2553.9,489.3 2555.1,485.2C2555.7,483.3 2557.0,480.4 2558.1,478.7C2559.1,476.9 2560.0,474.4 2560.0,473.1C2560.0,471.9 2562.5,465.2 2565.5,458.4C2568.5,451.5 2571.0,445.5 2571.0,444.9C2571.0,444.4 2571.8,442.8 2572.7,441.3C2574.4,438.7 2577.1,431.9 2579.5,424.0C2581.2,418.5 2585.3,408.3 2588.5,401.5C2592.7,392.6 2595.0,387.1 2595.0,386.0C2595.0,385.4 2596.1,382.8 2597.5,380.2C2598.9,377.6 2600.0,374.7 2600.0,373.7C2600.0,372.0 2602.7,365.0 2607.2,355.1C2608.3,352.6 2609.9,348.8 2610.6,346.6C2611.4,344.5 2612.4,342.2 2612.9,341.6C2614.1,340.1 2618.6,328.4 2619.9,323.5C2620.5,321.3 2621.9,317.7 2623.0,315.5C2624.1,313.4 2625.0,311.0 2625.0,310.4C2625.0,309.7 2627.2,304.5 2630.0,298.7C2632.8,292.9 2635.0,287.6 2635.0,286.8C2635.0,286.1 2636.0,283.7 2637.1,281.5C2638.3,279.3 2639.8,275.2 2640.5,272.5C2641.6,268.1 2647.9,252.7 2653.1,241.5C2656.7,233.9 2660.0,225.1 2660.0,223.3C2660.0,222.3 2660.7,220.4 2661.6,219.2C2662.4,218.0 2663.8,214.6 2664.6,211.8C2665.5,208.9 2667.4,205.3 2668.8,203.7L2671.4,201.0L2703.7,201.0C2740.1,201.0 2739.1,200.8 2740.3,208.7C2740.7,210.9 2742.2,215.4 2743.6,218.6C2748.0,228.6 2748.8,230.4 2749.5,233.0C2749.9,234.4 2751.3,237.5 2752.5,240.0C2753.8,242.5 2756.0,247.8 2757.4,251.8C2758.8,255.7 2761.2,262.3 2762.6,266.2C2764.0,270.2 2766.3,275.8 2767.6,278.6C2768.9,281.4 2770.0,284.0 2770.0,284.3C2770.0,284.7 2771.1,287.4 2772.5,290.4C2773.9,293.4 2775.0,296.4 2775.0,297.1C2775.0,297.7 2775.8,299.7 2776.9,301.4C2777.9,303.1 2779.3,307.0 2780.0,310.0C2780.7,313.0 2781.9,316.6 2782.6,318.0C2783.3,319.4 2785.3,324.1 2787.0,328.5C2788.7,332.9 2791.2,338.8 2792.5,341.5C2793.8,344.2 2796.0,349.8 2797.4,353.8C2804.1,372.3 2805.4,375.8 2807.6,380.5C2808.9,383.3 2810.0,385.9 2810.0,386.4C2810.0,387.0 2810.9,389.2 2811.9,391.4C2817.2,402.8 2818.9,407.4 2820.0,412.4C2820.6,415.5 2821.5,418.2 2822.0,418.5C2822.5,418.8 2823.4,420.7 2824.0,422.8C2824.7,424.8 2827.2,431.0 2829.5,436.5C2835.6,450.4 2838.9,458.7 2840.5,464.0C2842.7,471.4 2846.1,480.4 2847.1,481.6C2847.6,482.2 2848.6,484.6 2849.4,486.9C2850.3,489.2 2851.6,492.5 2852.4,494.3C2857.0,504.6 2859.1,510.0 2860.0,514.5C2860.6,517.2 2861.5,519.9 2862.1,520.6C2862.6,521.2 2863.9,524.2 2864.9,527.2C2865.9,530.2 2868.6,536.7 2870.8,541.6C2876.1,553.5 2878.9,560.6 2880.5,566.0C2881.2,568.5 2882.7,572.8 2883.8,575.5C2884.9,578.2 2887.0,583.4 2888.5,587.0C2889.9,590.6 2892.2,595.8 2893.5,598.5C2894.8,601.2 2896.9,606.6 2898.1,610.5C2899.3,614.4 2901.0,619.1 2902.0,621.0C2903.0,622.9 2904.1,626.0 2904.5,627.8C2904.9,629.6 2907.1,635.2 2909.5,640.3C2911.8,645.4 2914.3,651.3 2915.0,653.5C2915.7,655.7 2917.1,659.1 2918.1,661.0C2919.2,662.9 2920.0,665.3 2920.0,666.2C2920.0,667.2 2921.8,672.4 2924.1,677.7C2926.3,683.1 2929.0,689.9 2930.1,692.9C2931.1,695.9 2932.4,698.8 2933.0,699.5C2933.9,700.6 2936.2,706.7 2939.6,717.0C2941.7,723.5 2945.8,733.9 2948.0,738.5C2951.5,745.7 2955.0,754.2 2955.0,755.4C2955.0,756.0 2956.2,758.8 2957.5,761.5C2958.9,764.2 2960.0,767.3 2960.0,768.4C2960.0,769.4 2961.2,773.0 2962.6,776.4C2967.7,788.2 2969.8,793.5 2970.5,796.0C2970.9,797.4 2971.8,799.2 2972.5,800.0C2973.2,800.8 2974.1,802.6 2974.4,804.0C2976.1,810.1 2985.1,834.0 2986.8,836.8C2988.0,838.6 2988.0,839.3 2987.0,840.5C2985.9,841.8 2981.2,842.0 2955.8,842.0C2922.1,842.0 2920.1,841.6 2920.0,835.3C2920.0,833.3 2914.9,819.6 2912.9,816.1C2910.8,812.4 2901.7,789.0 2895.9,772.0C2894.8,769.0 2892.2,762.9 2890.1,758.5C2887.9,754.1 2885.7,748.4 2885.0,746.0C2884.4,743.5 2883.2,740.8 2882.4,739.9C2881.6,739.0 2880.6,736.5 2880.3,734.4C2879.7,730.6 2872.3,711.3 2867.6,701.5C2864.7,695.3 2861.0,685.9 2860.0,681.7C2857.5,672.1 2846.3,646.5 2843.2,643.4C2842.1,642.2 2818.0,642.0 2699.8,642.0C2559.1,642.0 2557.8,642.0 2555.0,644.0C2553.2,645.3 2551.5,647.9 2550.4,651.3C2549.5,654.1 2548.0,657.5 2547.3,658.7C2546.5,659.9 2545.2,662.8 2544.4,665.2C2543.7,667.6 2541.7,673.3 2540.0,678.0C2538.3,682.7 2536.2,688.8 2535.3,691.5C2534.5,694.2 2533.3,697.0 2532.8,697.6C2532.3,698.3 2530.9,701.4 2529.6,704.6C2528.3,707.9 2525.6,714.5 2523.6,719.3C2521.6,724.1 2520.0,728.8 2520.0,729.7C2520.0,730.5 2518.9,733.8 2517.6,736.9C2516.2,740.0 2513.7,746.3 2511.9,751.0C2510.1,755.7 2508.1,760.2 2507.4,761.0C2506.8,761.8 2505.5,764.8 2504.7,767.5C2503.8,770.2 2501.7,776.3 2500.0,781.0C2498.3,785.7 2496.4,791.1 2495.9,793.0C2495.3,794.9 2494.0,798.1 2493.0,800.0C2491.3,803.1 2484.9,818.6 2481.4,828.0C2480.7,829.9 2479.8,833.2 2479.5,835.2C2478.5,841.8 2477.2,842.0 2444.3,841.9C2428.5,841.9 2414.9,841.6 2414.2,841.3ZM3665.2,840.8C3664.3,839.9 3664.0,809.3 3663.9,709.5L3663.8,579.5L3660.4,573.5C3658.6,570.2 3656.4,566.1 3655.5,564.3C3654.7,562.5 3653.4,560.7 3652.6,560.3C3650.7,559.3 3647.2,554.2 3642.4,546.0C3640.3,542.4 3637.8,538.6 3636.8,537.6C3635.8,536.5 3635.0,535.3 3635.0,534.8C3635.0,533.9 3629.2,525.6 3624.4,519.5C3622.6,517.3 3620.5,513.9 3619.6,512.0C3616.5,505.6 3614.0,501.5 3612.5,500.4C3610.4,498.9 3606.9,493.8 3602.4,486.0C3600.3,482.4 3598.3,479.3 3597.8,479.2C3597.3,479.0 3596.1,477.2 3595.1,475.2C3594.0,473.1 3590.2,467.5 3586.6,462.6C3583.0,457.7 3580.0,453.2 3580.0,452.6C3580.0,451.3 3574.9,443.4 3572.2,440.5C3569.3,437.3 3565.6,431.9 3562.0,425.6C3560.2,422.3 3558.0,418.9 3557.3,418.1C3556.5,417.2 3554.4,414.2 3552.7,411.5C3550.9,408.8 3547.4,403.6 3544.8,400.1C3542.1,396.6 3540.0,393.2 3540.0,392.6C3540.0,391.3 3534.9,383.4 3532.2,380.5C3529.4,377.5 3525.7,372.1 3522.2,366.0C3520.4,363.0 3518.1,359.4 3517.1,358.0C3516.1,356.6 3514.0,353.5 3512.4,351.0C3510.8,348.6 3507.4,343.7 3504.8,340.1C3502.1,336.6 3500.0,333.2 3500.0,332.6C3500.0,331.3 3494.9,323.4 3492.2,320.5C3489.4,317.5 3485.7,312.1 3482.2,306.0C3480.4,303.0 3478.1,299.4 3477.1,298.0C3476.1,296.6 3474.0,293.5 3472.4,291.0C3470.8,288.6 3467.4,283.7 3464.8,280.1C3462.1,276.6 3460.0,273.2 3460.0,272.6C3460.0,271.3 3454.9,263.4 3452.2,260.5C3449.4,257.5 3445.7,252.1 3442.2,246.0C3440.4,243.0 3438.1,239.4 3437.1,238.0C3436.1,236.6 3434.0,233.5 3432.4,231.0C3430.8,228.6 3427.5,223.7 3425.0,220.3C3417.8,210.4 3414.8,205.1 3415.2,203.3C3415.5,201.6 3418.0,201.5 3449.4,201.2L3483.2,201.0L3485.6,203.5C3486.9,204.9 3490.1,209.3 3492.7,213.1C3497.1,219.7 3499.4,223.3 3504.4,232.2C3505.4,234.0 3507.8,237.4 3509.7,239.7C3513.4,244.2 3520.0,254.7 3520.0,256.0C3520.0,256.5 3521.0,258.1 3522.2,259.7C3524.6,262.6 3525.8,264.5 3528.8,269.3C3530.5,272.2 3534.9,278.2 3537.2,280.9C3537.9,281.7 3540.1,285.8 3542.3,289.9C3544.4,294.1 3546.7,298.0 3547.4,298.5C3549.1,299.8 3560.0,316.1 3560.0,317.3C3560.0,317.8 3560.9,319.4 3562.1,320.8C3563.2,322.3 3565.6,325.8 3567.3,328.5C3569.1,331.3 3572.3,336.0 3574.5,339.0C3576.8,342.0 3579.8,347.0 3581.3,350.1C3582.8,353.1 3586.2,358.4 3588.8,361.7C3591.5,365.0 3595.3,370.6 3597.4,374.1C3603.4,384.6 3608.8,393.0 3613.7,399.4C3616.2,402.8 3619.1,407.3 3620.1,409.5C3621.1,411.7 3623.3,415.3 3624.9,417.5C3629.7,423.8 3640.5,440.4 3646.9,451.3C3648.2,453.3 3650.7,456.9 3652.6,459.1C3654.4,461.3 3657.3,465.9 3658.9,469.3C3660.6,472.7 3663.6,477.6 3665.7,480.2C3667.8,482.7 3670.8,487.2 3672.5,490.0C3674.2,492.9 3676.5,496.5 3677.8,498.0C3679.0,499.5 3680.0,501.1 3680.0,501.6C3680.0,502.0 3681.1,504.0 3682.3,505.9C3683.6,507.9 3686.4,512.1 3688.4,515.2C3693.4,523.1 3698.2,525.4 3699.5,520.8C3699.9,519.5 3701.2,516.9 3702.4,515.0C3706.5,508.7 3712.0,500.6 3716.0,495.0C3718.2,492.0 3720.0,489.1 3720.0,488.6C3720.0,487.8 3721.6,485.3 3731.0,471.6C3733.2,468.4 3735.0,465.4 3735.0,465.0C3735.0,464.5 3736.0,462.9 3737.3,461.3C3738.6,459.8 3741.2,455.8 3743.0,452.5C3744.8,449.2 3748.1,444.3 3750.3,441.7C3754.3,436.9 3756.5,433.5 3759.4,427.3C3760.3,425.6 3762.4,422.0 3764.2,419.4C3773.2,406.5 3775.0,403.7 3775.0,403.1C3775.0,402.6 3775.9,401.5 3776.9,400.6C3778.0,399.6 3780.1,396.3 3781.6,393.3C3783.1,390.2 3786.5,384.9 3789.1,381.3C3791.8,377.8 3794.8,373.5 3795.8,371.8C3801.2,362.3 3803.0,359.5 3807.4,352.8C3810.1,348.8 3813.7,343.7 3815.4,341.5C3817.1,339.3 3820.3,334.0 3822.5,329.7C3824.6,325.5 3826.7,322.0 3827.2,322.0C3828.2,322.0 3833.6,313.9 3839.4,303.9C3840.6,301.9 3842.4,299.0 3843.4,297.4C3844.5,295.8 3846.9,292.0 3848.8,289.0C3850.7,286.0 3853.7,281.7 3855.5,279.5C3857.2,277.3 3859.9,272.9 3861.4,269.6C3863.0,266.4 3865.5,262.4 3866.9,260.6C3869.5,257.7 3872.3,253.6 3874.5,250.1C3881.8,238.1 3883.8,234.8 3888.4,228.0C3890.4,225.0 3893.8,220.1 3896.0,217.1C3898.1,214.1 3900.1,210.5 3900.5,209.1C3900.9,207.7 3902.3,205.3 3903.8,203.7L3906.4,201.0L3941.7,201.0C3982.6,201.0 3980.1,200.1 3972.3,211.6C3969.8,215.4 3967.3,218.7 3966.9,219.0C3965.6,219.9 3960.0,228.4 3960.0,229.5C3960.0,230.7 3955.7,237.1 3950.9,243.0C3948.9,245.5 3945.7,250.0 3943.8,253.0C3941.9,256.0 3938.1,261.9 3935.4,266.0C3932.7,270.1 3930.1,274.2 3929.5,275.1C3929.0,276.0 3927.0,278.7 3925.2,281.1C3923.3,283.5 3920.5,288.1 3918.8,291.3C3917.1,294.5 3914.5,298.3 3913.0,299.8C3910.6,302.3 3908.1,305.9 3902.5,315.0C3896.9,324.1 3888.1,337.0 3884.2,341.8C3881.9,344.7 3880.0,347.6 3880.0,348.2C3880.0,349.6 3875.7,356.1 3871.7,360.9C3870.1,362.8 3866.9,367.3 3864.6,371.0C3860.0,378.4 3859.3,379.5 3856.6,383.6C3855.5,385.2 3853.5,388.3 3852.1,390.5C3850.7,392.7 3847.9,396.5 3845.9,399.0C3843.8,401.5 3840.5,406.6 3838.5,410.5C3836.5,414.4 3834.1,418.2 3833.1,419.0C3832.2,419.8 3830.1,422.5 3828.4,425.0C3825.7,428.9 3824.0,431.6 3819.5,439.1C3817.6,442.2 3814.6,446.5 3807.8,455.7C3804.0,460.8 3800.6,466.0 3800.1,467.3C3799.0,470.2 3794.7,476.9 3792.2,479.5C3790.2,481.5 3786.0,487.7 3780.5,496.5C3775.6,504.5 3769.7,513.0 3765.8,518.0C3764.4,519.9 3761.2,524.9 3758.9,529.0C3756.6,533.1 3752.8,538.8 3750.5,541.5C3748.2,544.2 3745.4,548.0 3744.4,549.8C3743.3,551.7 3741.8,554.5 3740.8,556.2C3739.9,557.8 3738.4,560.0 3737.4,561.1C3736.5,562.1 3735.2,563.9 3734.6,564.9C3734.0,566.0 3731.6,569.7 3729.2,573.1L3724.9,579.3L3725.0,709.3C3725.0,805.2 3724.7,839.6 3723.9,840.6C3722.3,842.5 3667.1,842.7 3665.2,840.8ZM4210.7,840.7C4209.1,839.6 4209.0,822.0 4209.0,548.4C4209.0,278.1 4208.9,257.2 4207.4,255.9C4206.0,254.7 4190.5,254.5 4115.7,254.3C4065.6,254.1 4025.2,253.6 4024.8,253.2C4023.1,251.5 4025.5,246.2 4030.0,241.2C4034.9,235.9 4037.7,231.4 4039.7,226.1C4040.4,224.2 4041.7,221.9 4042.5,221.1C4045.3,218.1 4048.7,213.5 4050.3,210.5C4051.2,208.8 4053.3,206.0 4054.8,204.2L4057.6,201.0L4278.6,201.2L4499.5,201.5L4499.8,226.9C4499.9,240.9 4499.7,252.7 4499.2,253.2C4498.7,253.7 4449.6,254.0 4390.0,254.0C4289.9,254.0 4281.6,254.1 4279.8,255.6C4278.0,257.3 4278.0,266.0 4278.0,548.4C4278.0,822.0 4277.9,839.6 4276.3,840.7C4275.0,841.7 4266.8,842.0 4243.5,842.0C4220.2,842.0 4212.0,841.7 4210.7,840.7ZM2151.5,766.7C2159.8,765.2 2169.2,763.3 2172.5,762.4C2175.8,761.5 2181.0,760.2 2184.0,759.4C2191.0,757.8 2199.0,754.9 2202.3,752.7C2203.8,751.8 2205.3,751.0 2205.8,751.0C2207.1,751.0 2220.1,744.0 2222.9,741.9C2224.2,740.8 2226.0,740.0 2226.8,740.0C2228.7,740.0 2237.1,734.6 2242.0,730.3C2244.0,728.4 2248.6,724.9 2252.0,722.5C2255.5,720.0 2259.0,716.9 2259.9,715.6C2260.8,714.3 2265.3,709.1 2270.0,704.0C2277.8,695.5 2280.0,692.5 2284.4,683.2C2285.3,681.5 2286.4,680.0 2286.9,680.0C2287.9,680.0 2294.3,668.8 2295.5,665.0C2295.9,663.6 2297.1,661.4 2298.1,660.1C2299.2,658.8 2300.0,656.8 2300.0,655.7C2300.0,654.6 2300.9,651.8 2301.9,649.6C2304.1,645.0 2306.3,639.2 2309.2,630.5C2310.3,627.2 2312.0,622.5 2313.1,620.0C2314.1,617.5 2315.2,613.2 2315.6,610.5C2316.0,607.8 2316.9,603.8 2317.6,601.6C2318.4,599.5 2319.5,592.5 2320.1,586.1C2320.7,579.7 2321.6,572.3 2322.1,569.5C2325.7,550.7 2325.6,494.0 2322.0,465.5C2320.9,456.7 2320.0,447.7 2320.0,445.5C2320.0,443.3 2319.3,438.4 2318.4,434.5C2317.5,430.6 2316.2,424.6 2315.5,421.0C2314.0,413.7 2308.8,397.5 2306.7,393.3C2305.9,391.7 2304.9,388.9 2304.5,387.0C2304.1,385.1 2302.9,382.4 2301.9,381.1C2300.8,379.8 2300.0,377.9 2300.0,376.8C2300.0,375.8 2298.9,372.8 2297.5,370.2C2296.1,367.6 2295.0,365.0 2295.0,364.4C2295.0,363.8 2294.3,362.7 2293.4,361.9C2292.6,361.2 2290.3,358.1 2288.3,355.1C2286.3,352.0 2283.5,347.7 2282.1,345.5C2277.2,337.9 2262.0,322.0 2253.5,315.5C2249.9,312.8 2244.9,308.9 2242.3,306.8C2239.8,304.8 2236.4,302.5 2234.6,301.7C2232.9,300.9 2226.3,297.7 2220.0,294.6C2213.7,291.5 2208.1,289.0 2207.6,289.0C2207.1,289.0 2204.9,288.2 2202.6,287.1C2196.4,284.2 2180.4,280.2 2172.2,279.5C2168.2,279.1 2162.5,278.1 2159.7,277.2C2155.2,275.9 2142.2,275.6 2064.5,275.1C2015.0,274.8 1973.4,274.9 1972.0,275.3C1970.7,275.8 1969.2,276.7 1968.8,277.3C1968.4,278.0 1968.0,388.2 1968.0,522.3L1968.0,766.0L1970.1,768.1C1972.1,770.1 1972.4,770.2 2054.3,769.8L2136.5,769.4L2151.5,766.7ZM2821.4,588.7C2822.3,587.4 2821.7,584.5 2818.6,575.2C2816.4,568.8 2814.0,562.4 2813.2,561.2C2812.5,559.9 2811.0,556.5 2810.0,553.7C2809.0,550.8 2806.6,544.8 2804.7,540.2C2802.7,535.7 2800.7,529.7 2800.1,527.0C2799.5,524.3 2798.1,520.4 2797.0,518.3C2795.9,516.2 2795.0,513.9 2795.0,513.1C2795.0,512.4 2792.8,506.6 2790.0,500.3C2787.2,494.0 2785.0,488.3 2785.0,487.7C2785.0,487.0 2783.9,484.2 2782.5,481.5C2781.2,478.8 2780.0,475.5 2780.0,474.3C2780.0,473.0 2778.2,467.6 2775.9,462.3C2773.7,456.9 2771.2,450.6 2770.4,448.2C2769.7,445.9 2768.4,442.7 2767.6,441.2C2766.0,438.5 2765.5,437.0 2758.0,414.6C2755.8,408.1 2753.3,401.6 2752.5,400.1C2749.8,395.2 2741.8,374.5 2740.4,368.7C2739.6,365.5 2738.0,361.2 2737.0,359.2C2735.9,357.2 2735.0,354.9 2735.0,354.2C2735.0,352.7 2731.0,342.8 2727.4,335.6C2726.1,332.8 2725.0,329.9 2725.0,329.1C2725.0,328.2 2724.0,325.5 2722.9,323.0C2721.7,320.5 2720.2,316.2 2719.5,313.5C2718.8,310.8 2717.3,306.2 2716.2,303.5C2715.1,300.8 2712.6,294.5 2710.6,289.6C2708.6,284.7 2706.6,280.2 2706.2,279.6C2705.7,279.0 2705.0,276.5 2704.7,274.1C2704.1,269.2 2702.1,266.6 2699.8,267.5C2698.2,268.1 2697.5,269.6 2694.7,278.0C2693.0,283.1 2688.4,294.7 2687.1,297.1C2685.4,300.0 2681.1,311.5 2680.0,315.9C2679.4,318.3 2678.2,321.3 2677.5,322.4C2676.8,323.6 2675.9,326.0 2675.5,327.8C2675.1,329.6 2672.6,335.8 2669.9,341.6C2667.2,347.4 2665.0,352.6 2665.0,353.3C2665.0,354.0 2663.9,356.8 2662.5,359.5C2661.2,362.2 2660.0,365.3 2660.0,366.2C2660.0,367.2 2658.2,372.4 2655.9,377.7C2653.7,383.1 2651.0,389.9 2649.9,392.9C2648.9,395.9 2647.5,398.9 2646.9,399.6C2646.3,400.3 2645.2,402.8 2644.4,405.2C2643.7,407.6 2641.7,413.3 2640.0,418.0C2638.3,422.7 2636.3,428.3 2635.5,430.5C2634.8,432.7 2632.4,438.3 2630.3,443.0C2628.1,447.7 2625.7,453.3 2625.0,455.5C2624.3,457.7 2623.1,460.6 2622.4,462.0C2621.7,463.4 2620.4,467.0 2619.6,470.0C2618.1,475.7 2608.6,499.5 2607.1,501.4C2606.1,502.6 2602.8,511.4 2600.3,519.5C2599.5,522.2 2598.0,526.3 2596.9,528.6C2595.9,530.8 2595.0,533.3 2595.0,534.1C2595.0,534.9 2594.3,536.9 2593.4,538.5C2590.3,544.2 2581.8,565.5 2580.1,571.5C2579.2,574.8 2577.7,578.6 2576.8,580.0C2574.7,582.8 2574.4,588.0 2576.2,589.8C2577.1,590.7 2605.2,590.9 2698.8,590.8C2813.6,590.5 2820.3,590.4 2821.4,588.7Z"/></g>
<path transform="translate(219.82,231.21) scale(0.064000,-0.064000)" fill="#454545" d="M78 714V0H173V327H501V407H173V634H547V714Z"/><path transform="translate(256.89,231.21) scale(0.064000,-0.064000)" fill="#454545" d="M522 2Q500 -11 461 -11Q428 -11 408.5 7.5Q389 26 389 68Q354 26 307.5 7.5Q261 -11 207 -11Q172 -11 140.5 -3.0Q109 5 86.0 22.0Q63 39 49.5 66.5Q36 94 36 133Q36 177 51.0 205.0Q66 233 90.5 250.5Q115 268 146.5 277.0Q178 286 211 292Q246 299 277.5 302.5Q309 306 333.0 312.5Q357 319 371.0 331.5Q385 344 385 368Q385 396 374.5 413.0Q364 430 347.5 439.0Q331 448 310.5 451.0Q290 454 270 454Q216 454 180.0 433.5Q144 413 141 356H56Q58 404 76.0 437.0Q94 470 124.0 490.5Q154 511 192.5 520.0Q231 529 275 529Q310 529 344.5 524.0Q379 519 407.0 503.5Q435 488 452.0 460.0Q469 432 469 387V121Q469 91 472.5 77.0Q476 63 496 63Q507 63 522 68ZM384 267Q368 255 342.0 249.5Q316 244 287.5 240.5Q259 237 230.0 232.5Q201 228 178.0 218.0Q155 208 140.5 189.5Q126 171 126 139Q126 118 134.5 103.5Q143 89 156.5 80.0Q170 71 188.0 67.0Q206 63 226 63Q268 63 298.0 74.5Q328 86 347.0 103.5Q366 121 375.0 141.5Q384 162 384 180Z"/><path transform="translate(291.60,231.21) scale(0.064000,-0.064000)" fill="#454545" d="M415 351H503Q498 397 479.0 430.5Q460 464 430.5 486.0Q401 508 362.5 518.5Q324 529 280 529Q219 529 173.0 507.5Q127 486 96.5 448.5Q66 411 51.0 360.5Q36 310 36 252Q36 194 51.5 145.5Q67 97 97.5 62.0Q128 27 173.5 8.0Q219 -11 278 -11Q377 -11 434.5 41.0Q492 93 506 189H419Q411 129 375.5 96.0Q340 63 277 63Q237 63 208.0 79.0Q179 95 161.0 121.5Q143 148 134.5 182.0Q126 216 126 252Q126 291 134.0 327.5Q142 364 160.5 392.0Q179 420 210.0 437.0Q241 454 287 454Q341 454 373.0 427.0Q405 400 415 351Z"/><path transform="translate(326.31,231.21) scale(0.064000,-0.064000)" fill="#454545" d="M64 714V0H149V292Q149 327 158.5 356.5Q168 386 187.0 408.0Q206 430 234.5 442.0Q263 454 302 454Q351 454 379.0 426.0Q407 398 407 350V0H492V340Q492 382 483.5 416.5Q475 451 454.0 476.0Q433 501 399.0 515.0Q365 529 314 529Q291 529 266.5 524.0Q242 519 219.5 508.5Q197 498 179.0 481.5Q161 465 151 441H149V714Z"/><path transform="translate(362.23,231.21) scale(0.064000,-0.064000)" fill="#454545" d="M69 714V0H154V196L234 270L411 0H519L299 329L504 517H390L154 291V714Z"/><path transform="translate(395.79,231.21) scale(0.064000,-0.064000)" fill="#454545" d="M61 517V0H146V230Q146 280 156.0 318.5Q166 357 188.0 384.0Q210 411 246.0 425.0Q282 439 333 439V529Q264 531 219.0 501.0Q174 471 143 408H141V517Z"/><path transform="translate(417.44,231.21) scale(0.064000,-0.064000)" fill="#454545" d="M130 696V592H220V696ZM318 696V592H408V696ZM522 2V68Q507 63 496 63Q476 63 472.5 77.0Q469 91 469 121V387Q469 432 452.0 460.0Q435 488 407.0 503.5Q379 519 344.5 524.0Q310 529 275 529Q232 529 193.0 520.0Q154 511 124.0 490.5Q94 470 76.0 437.0Q58 404 56 356H141Q144 413 180.0 433.5Q216 454 270 454Q290 454 310.5 451.0Q331 448 347.5 439.0Q364 430 374.5 413.0Q385 396 385 368Q385 344 371.0 331.5Q357 319 333.0 312.5Q309 306 277.5 302.5Q246 299 211 292Q178 286 146.5 277.0Q115 268 90.5 250.5Q66 233 51.0 205.0Q36 177 36 133Q36 94 49.5 66.5Q63 39 86.5 21.5Q110 4 141.0 -3.5Q172 -11 207 -11Q261 -11 307.5 7.5Q354 26 389 68Q389 26 408.5 7.5Q428 -11 461 -11Q500 -11 522 2ZM384 267V180Q384 162 375.0 141.5Q366 121 347.0 103.5Q328 86 298.0 74.5Q268 63 226 63Q207 63 188.5 67.0Q170 71 156.5 80.0Q143 89 134.5 103.5Q126 118 126 139Q126 171 140.5 189.5Q155 208 178.0 218.0Q201 228 230.0 232.5Q259 237 287.5 240.5Q316 244 342.0 249.5Q368 255 384 267Z"/><path transform="translate(452.15,231.21) scale(0.064000,-0.064000)" fill="#454545" d="M99 442V0H184V442H284V517H184V589Q184 623 201.0 635.0Q218 647 249 647Q260 647 273.0 645.5Q286 644 297 640V714Q285 718 269.5 720.0Q254 722 242 722Q172 722 135.5 689.5Q99 657 99 594V517H12V442Z"/><path transform="translate(471.44,231.21) scale(0.064000,-0.064000)" fill="#454545" d="M182 517V672H97V517H9V442H97V113Q97 77 104.0 55.0Q111 33 125.5 21.0Q140 9 163.5 4.5Q187 0 220 0H285V75H246Q226 75 213.5 76.5Q201 78 194.0 83.0Q187 88 184.5 97.0Q182 106 182 121V442H285V517Z"/><path transform="translate(491.94,231.21) scale(0.064000,-0.064000)" fill="#454545" d="M423 308H126Q128 338 139.0 364.5Q150 391 169.0 411.0Q188 431 214.5 442.5Q241 454 274 454Q306 454 332.5 442.5Q359 431 378.5 411.5Q398 392 409.5 365.0Q421 338 423 308ZM505 164H421Q410 113 375.5 88.0Q341 63 287 63Q245 63 214.0 77.0Q183 91 163.0 114.5Q143 138 134.0 168.5Q125 199 126 233H513Q515 280 504.5 332.0Q494 384 466.5 428.0Q439 472 393.5 500.5Q348 529 279 529Q226 529 181.5 509.0Q137 489 104.5 453.0Q72 417 54.0 368.0Q36 319 36 260Q38 201 53.5 151.0Q69 101 100.0 65.0Q131 29 176.5 9.0Q222 -11 284 -11Q372 -11 430.0 33.0Q488 77 505 164Z"/><path transform="translate(544.78,231.21) scale(0.064000,-0.064000)" fill="#454545" d="M99 442V0H184V442H284V517H184V589Q184 623 201.0 635.0Q218 647 249 647Q260 647 273.0 645.5Q286 644 297 640V714Q285 718 269.5 720.0Q254 722 242 722Q172 722 135.5 689.5Q99 657 99 594V517H12V442Z"/><path transform="translate(564.06,231.21) scale(0.064000,-0.064000)" fill="#454545" d="M139 696V592H229V696ZM327 696V592H417V696ZM492 0V517H407V225Q407 190 397.5 160.5Q388 131 369.0 109.0Q350 87 321.5 75.0Q293 63 254 63Q205 63 177.0 91.0Q149 119 149 167V517H64V177Q64 135 72.5 100.5Q81 66 102.0 41.0Q123 16 157.0 2.5Q191 -11 242 -11Q299 -11 341.0 11.5Q383 34 410 82H412V0Z"/><path transform="translate(599.99,231.21) scale(0.064000,-0.064000)" fill="#454545" d="M61 517V0H146V230Q146 280 156.0 318.5Q166 357 188.0 384.0Q210 411 246.0 425.0Q282 439 333 439V529Q264 531 219.0 501.0Q174 471 143 408H141V517Z"/><path transform="translate(639.77,231.21) scale(0.064000,-0.064000)" fill="#454545" d="M64 517V0H149V322Q149 337 156.5 359.5Q164 382 180.5 403.0Q197 424 223.5 439.0Q250 454 287 454Q316 454 334.5 445.5Q353 437 364.0 421.5Q375 406 379.5 385.0Q384 364 384 339V0H469V322Q469 382 505.0 418.0Q541 454 604 454Q635 454 654.5 445.0Q674 436 685.0 420.5Q696 405 700.0 384.0Q704 363 704 339V0H789V379Q789 419 776.5 447.5Q764 476 741.5 494.0Q719 512 687.5 520.5Q656 529 617 529Q566 529 523.5 506.0Q481 483 455 441Q439 489 400.0 509.0Q361 529 313 529Q204 529 146 441H144V517Z"/><path transform="translate(694.70,231.21) scale(0.064000,-0.064000)" fill="#454545" d="M423 308H126Q128 338 139.0 364.5Q150 391 169.0 411.0Q188 431 214.5 442.5Q241 454 274 454Q306 454 332.5 442.5Q359 431 378.5 411.5Q398 392 409.5 365.0Q421 338 423 308ZM505 164H421Q410 113 375.5 88.0Q341 63 287 63Q245 63 214.0 77.0Q183 91 163.0 114.5Q143 138 134.0 168.5Q125 199 126 233H513Q515 280 504.5 332.0Q494 384 466.5 428.0Q439 472 393.5 500.5Q348 529 279 529Q226 529 181.5 509.0Q137 489 104.5 453.0Q72 417 54.0 368.0Q36 319 36 260Q38 201 53.5 151.0Q69 101 100.0 65.0Q131 29 176.5 9.0Q222 -11 284 -11Q372 -11 430.0 33.0Q488 77 505 164Z"/><path transform="translate(729.41,231.21) scale(0.064000,-0.064000)" fill="#454545" d="M126 254Q126 292 134.0 328.0Q142 364 160.0 392.0Q178 420 208.0 437.0Q238 454 281 454Q325 454 356.0 437.5Q387 421 406.5 394.0Q426 367 435.0 331.5Q444 296 444 258Q444 222 435.5 187.0Q427 152 408.0 124.5Q389 97 359.0 80.0Q329 63 286 63Q245 63 214.5 79.0Q184 95 164.5 122.0Q145 149 135.5 183.5Q126 218 126 254ZM526 0V714H441V448H439Q425 471 404.5 486.5Q384 502 361.0 511.5Q338 521 315.0 525.0Q292 529 272 529Q213 529 168.5 507.5Q124 486 94.5 449.5Q65 413 50.5 364.0Q36 315 36 260Q36 205 51.0 156.0Q66 107 95.5 70.0Q125 33 169.5 11.0Q214 -11 274 -11Q328 -11 373.0 8.0Q418 27 439 70H441V0Z"/><path transform="translate(767.71,231.21) scale(0.064000,-0.064000)" fill="#454545" d="M83 111V0H194V111Z"/><path transform="translate(803.97,231.21) scale(0.064000,-0.064000)" fill="#454545" d="M78 714V0H551V80H173V714Z"/><path transform="translate(839.89,231.21) scale(0.064000,-0.064000)" fill="#454545" d="M522 2Q500 -11 461 -11Q428 -11 408.5 7.5Q389 26 389 68Q354 26 307.5 7.5Q261 -11 207 -11Q172 -11 140.5 -3.0Q109 5 86.0 22.0Q63 39 49.5 66.5Q36 94 36 133Q36 177 51.0 205.0Q66 233 90.5 250.5Q115 268 146.5 277.0Q178 286 211 292Q246 299 277.5 302.5Q309 306 333.0 312.5Q357 319 371.0 331.5Q385 344 385 368Q385 396 374.5 413.0Q364 430 347.5 439.0Q331 448 310.5 451.0Q290 454 270 454Q216 454 180.0 433.5Q144 413 141 356H56Q58 404 76.0 437.0Q94 470 124.0 490.5Q154 511 192.5 520.0Q231 529 275 529Q310 529 344.5 524.0Q379 519 407.0 503.5Q435 488 452.0 460.0Q469 432 469 387V121Q469 91 472.5 77.0Q476 63 496 63Q507 63 522 68ZM384 267Q368 255 342.0 249.5Q316 244 287.5 240.5Q259 237 230.0 232.5Q201 228 178.0 218.0Q155 208 140.5 189.5Q126 171 126 139Q126 118 134.5 103.5Q143 89 156.5 80.0Q170 71 188.0 67.0Q206 63 226 63Q268 63 298.0 74.5Q328 86 347.0 103.5Q366 121 375.0 141.5Q384 162 384 180Z"/><path transform="translate(874.60,231.21) scale(0.064000,-0.064000)" fill="#454545" d="M67 714V0H152V69H154Q168 46 188.5 30.5Q209 15 232.0 6.0Q255 -3 278.5 -7.0Q302 -11 321 -11Q380 -11 424.5 10.0Q469 31 498.5 67.5Q528 104 542.5 153.0Q557 202 557 257Q557 312 542.0 361.0Q527 410 497.5 447.5Q468 485 423.5 507.0Q379 529 319 529Q265 529 220.0 509.5Q175 490 154 447H152V714ZM467 263Q467 225 459.0 189.0Q451 153 433.0 125.0Q415 97 385.5 80.0Q356 63 312 63Q268 63 237.0 79.5Q206 96 186.5 123.0Q167 150 158.0 185.5Q149 221 149 259Q149 295 157.5 330.0Q166 365 185.0 392.5Q204 420 234.0 437.0Q264 454 307 454Q348 454 378.5 438.0Q409 422 428.5 395.0Q448 368 457.5 333.5Q467 299 467 263Z"/><path transform="translate(912.90,231.21) scale(0.064000,-0.064000)" fill="#454545" d="M126 258Q126 305 138.5 341.5Q151 378 173.0 403.0Q195 428 224.5 441.0Q254 454 287 454Q320 454 349.5 441.0Q379 428 401.0 403.0Q423 378 435.5 341.5Q448 305 448 258Q448 211 435.5 174.5Q423 138 401.0 113.5Q379 89 349.5 76.0Q320 63 287 63Q254 63 224.5 76.0Q195 89 173.0 113.5Q151 138 138.5 174.5Q126 211 126 258ZM36 258Q36 201 52.0 152.0Q68 103 100.0 66.5Q132 30 179.0 9.5Q226 -11 287 -11Q349 -11 395.5 9.5Q442 30 474.0 66.5Q506 103 522.0 152.0Q538 201 538 258Q538 315 522.0 364.5Q506 414 474.0 450.5Q442 487 395.5 508.0Q349 529 287 529Q226 529 179.0 508.0Q132 487 100.0 450.5Q68 414 52.0 364.5Q36 315 36 258Z"/><path transform="translate(949.97,231.21) scale(0.064000,-0.064000)" fill="#454545" d="M61 517V0H146V230Q146 280 156.0 318.5Q166 357 188.0 384.0Q210 411 246.0 425.0Q282 439 333 439V529Q264 531 219.0 501.0Q174 471 143 408H141V517Z"/><path transform="translate(971.62,231.21) scale(0.064000,-0.064000)" fill="#454545" d="M423 308H126Q128 338 139.0 364.5Q150 391 169.0 411.0Q188 431 214.5 442.5Q241 454 274 454Q306 454 332.5 442.5Q359 431 378.5 411.5Q398 392 409.5 365.0Q421 338 423 308ZM505 164H421Q410 113 375.5 88.0Q341 63 287 63Q245 63 214.0 77.0Q183 91 163.0 114.5Q143 138 134.0 168.5Q125 199 126 233H513Q515 280 504.5 332.0Q494 384 466.5 428.0Q439 472 393.5 500.5Q348 529 279 529Q226 529 181.5 509.0Q137 489 104.5 453.0Q72 417 54.0 368.0Q36 319 36 260Q38 201 53.5 151.0Q69 101 100.0 65.0Q131 29 176.5 9.0Q222 -11 284 -11Q372 -11 430.0 33.0Q488 77 505 164Z"/><path transform="translate(1024.47,231.21) scale(0.064000,-0.064000)" fill="#454545" d="M275 439Q263 454 251.0 469.0Q239 484 229.0 499.5Q219 515 212.5 531.0Q206 547 206 563Q206 602 232.0 620.5Q258 639 288 639Q326 639 348.0 616.5Q370 594 370 563Q370 540 361.0 521.5Q352 503 338.0 488.0Q324 473 307.0 461.0Q290 449 275 439ZM458 89 534 0H645L506 161Q517 185 525.0 203.5Q533 222 538.5 241.0Q544 260 547.5 282.5Q551 305 554 337H473Q470 282 450 226L321 383Q347 398 371.0 416.5Q395 435 414.0 458.0Q433 481 444.0 508.5Q455 536 455 568Q455 604 440.5 631.5Q426 659 402.0 677.5Q378 696 346.5 705.0Q315 714 282 714Q243 714 213.0 702.0Q183 690 162.5 669.5Q142 649 131.5 622.5Q121 596 121 567Q121 540 127.5 518.5Q134 497 145.5 477.5Q157 458 171.0 439.0Q185 420 200 399Q166 381 135.5 360.5Q105 340 82.5 314.5Q60 289 46.5 257.0Q33 225 33 183Q33 161 40.5 128.0Q48 95 72.0 64.0Q96 33 140.0 11.0Q184 -11 256 -11Q315 -11 370.5 14.0Q426 39 458 89ZM247 345 411 148Q385 109 346.5 86.0Q308 63 259 63Q233 63 208.5 72.0Q184 81 165.0 96.5Q146 112 134.5 134.5Q123 157 123 184Q123 216 133.0 239.5Q143 263 160.0 282.0Q177 301 199.5 316.0Q222 331 247 345Z"/><path transform="translate(1083.26,231.21) scale(0.064000,-0.064000)" fill="#454545" d="M78 714V0H173V305H405Q440 305 461.0 294.5Q482 284 495.0 266.5Q508 249 514.0 225.5Q520 202 524 176Q529 150 530.0 123.0Q531 96 532.0 72.5Q533 49 536.5 30.0Q540 11 550 0H656Q641 18 633.5 41.5Q626 65 622.0 91.0Q618 117 617.0 144.0Q616 171 614 197Q611 223 605.5 247.0Q600 271 588.5 290.5Q577 310 557.5 324.0Q538 338 507 344V346Q572 364 601.5 413.0Q631 462 631 527Q631 614 573.5 664.0Q516 714 414 714ZM371 385H173V634H409Q476 634 506.0 600.0Q536 566 536 512Q536 473 522.5 448.5Q509 424 486.5 409.5Q464 395 434.0 390.0Q404 385 371 385Z"/><path transform="translate(1127.44,231.21) scale(0.064000,-0.064000)" fill="#454545" d="M522 2Q500 -11 461 -11Q428 -11 408.5 7.5Q389 26 389 68Q354 26 307.5 7.5Q261 -11 207 -11Q172 -11 140.5 -3.0Q109 5 86.0 22.0Q63 39 49.5 66.5Q36 94 36 133Q36 177 51.0 205.0Q66 233 90.5 250.5Q115 268 146.5 277.0Q178 286 211 292Q246 299 277.5 302.5Q309 306 333.0 312.5Q357 319 371.0 331.5Q385 344 385 368Q385 396 374.5 413.0Q364 430 347.5 439.0Q331 448 310.5 451.0Q290 454 270 454Q216 454 180.0 433.5Q144 413 141 356H56Q58 404 76.0 437.0Q94 470 124.0 490.5Q154 511 192.5 520.0Q231 529 275 529Q310 529 344.5 524.0Q379 519 407.0 503.5Q435 488 452.0 460.0Q469 432 469 387V121Q469 91 472.5 77.0Q476 63 496 63Q507 63 522 68ZM384 267Q368 255 342.0 249.5Q316 244 287.5 240.5Q259 237 230.0 232.5Q201 228 178.0 218.0Q155 208 140.5 189.5Q126 171 126 139Q126 118 134.5 103.5Q143 89 156.5 80.0Q170 71 188.0 67.0Q206 63 226 63Q268 63 298.0 74.5Q328 86 347.0 103.5Q366 121 375.0 141.5Q384 162 384 180Z"/><path transform="translate(1162.15,231.21) scale(0.064000,-0.064000)" fill="#454545" d="M126 254Q126 292 134.0 328.0Q142 364 160.0 392.0Q178 420 208.0 437.0Q238 454 281 454Q325 454 356.0 437.5Q387 421 406.5 394.0Q426 367 435.0 331.5Q444 296 444 258Q444 222 435.5 187.0Q427 152 408.0 124.5Q389 97 359.0 80.0Q329 63 286 63Q245 63 214.5 79.0Q184 95 164.5 122.0Q145 149 135.5 183.5Q126 218 126 254ZM526 0V714H441V448H439Q425 471 404.5 486.5Q384 502 361.0 511.5Q338 521 315.0 525.0Q292 529 272 529Q213 529 168.5 507.5Q124 486 94.5 449.5Q65 413 50.5 364.0Q36 315 36 260Q36 205 51.0 156.0Q66 107 95.5 70.0Q125 33 169.5 11.0Q214 -11 274 -11Q328 -11 373.0 8.0Q418 27 439 70H441V0Z"/><path transform="translate(1200.44,231.21) scale(0.064000,-0.064000)" fill="#454545" d="M154 610V714H69V610ZM69 517V0H154V517Z"/><path transform="translate(1214.99,231.21) scale(0.064000,-0.064000)" fill="#454545" d="M126 258Q126 305 138.5 341.5Q151 378 173.0 403.0Q195 428 224.5 441.0Q254 454 287 454Q320 454 349.5 441.0Q379 428 401.0 403.0Q423 378 435.5 341.5Q448 305 448 258Q448 211 435.5 174.5Q423 138 401.0 113.5Q379 89 349.5 76.0Q320 63 287 63Q254 63 224.5 76.0Q195 89 173.0 113.5Q151 138 138.5 174.5Q126 211 126 258ZM36 258Q36 201 52.0 152.0Q68 103 100.0 66.5Q132 30 179.0 9.5Q226 -11 287 -11Q349 -11 395.5 9.5Q442 30 474.0 66.5Q506 103 522.0 152.0Q538 201 538 258Q538 315 522.0 364.5Q506 414 474.0 450.5Q442 487 395.5 508.0Q349 529 287 529Q226 529 179.0 508.0Q132 487 100.0 450.5Q68 414 52.0 364.5Q36 315 36 258Z"/><path transform="translate(1252.07,231.21) scale(0.064000,-0.064000)" fill="#454545" d="M69 714V0H154V714Z"/><path transform="translate(1266.61,231.21) scale(0.064000,-0.064000)" fill="#454545" d="M126 258Q126 305 138.5 341.5Q151 378 173.0 403.0Q195 428 224.5 441.0Q254 454 287 454Q320 454 349.5 441.0Q379 428 401.0 403.0Q423 378 435.5 341.5Q448 305 448 258Q448 211 435.5 174.5Q423 138 401.0 113.5Q379 89 349.5 76.0Q320 63 287 63Q254 63 224.5 76.0Q195 89 173.0 113.5Q151 138 138.5 174.5Q126 211 126 258ZM36 258Q36 201 52.0 152.0Q68 103 100.0 66.5Q132 30 179.0 9.5Q226 -11 287 -11Q349 -11 395.5 9.5Q442 30 474.0 66.5Q506 103 522.0 152.0Q538 201 538 258Q538 315 522.0 364.5Q506 414 474.0 450.5Q442 487 395.5 508.0Q349 529 287 529Q226 529 179.0 508.0Q132 487 100.0 450.5Q68 414 52.0 364.5Q36 315 36 258Z"/><path transform="translate(1303.69,231.21) scale(0.064000,-0.064000)" fill="#454545" d="M510 44V517H430V443H429Q406 486 365.0 507.5Q324 529 275 529Q208 529 162.0 503.5Q116 478 88.0 438.5Q60 399 48.0 350.5Q36 302 36 256Q36 203 50.5 155.5Q65 108 94.0 72.5Q123 37 166.0 16.0Q209 -5 267 -5Q317 -5 361.5 17.5Q406 40 428 88H430V54Q430 11 421.5 -25.0Q413 -61 394.0 -86.5Q375 -112 346.0 -126.5Q317 -141 275 -141Q254 -141 231.0 -136.5Q208 -132 188.5 -122.0Q169 -112 155.5 -96.0Q142 -80 141 -57H56Q58 -99 78.0 -128.0Q98 -157 128.5 -175.0Q159 -193 196.5 -201.0Q234 -209 270 -209Q394 -209 452.0 -146.0Q510 -83 510 44ZM272 69Q230 69 202.0 86.5Q174 104 157.0 132.5Q140 161 133.0 196.0Q126 231 126 266Q126 303 134.5 337.0Q143 371 161.5 397.0Q180 423 209.0 438.5Q238 454 279 454Q319 454 347.0 438.0Q375 422 392.5 395.5Q410 369 418.0 336.0Q426 303 426 269Q426 233 417.5 197.0Q409 161 391.0 132.5Q373 104 343.5 86.5Q314 69 272 69Z"/><path transform="translate(1340.77,231.21) scale(0.064000,-0.064000)" fill="#454545" d="M154 610V714H69V610ZM69 517V0H154V517Z"/><path transform="translate(1355.32,231.21) scale(0.064000,-0.064000)" fill="#454545" d="M423 308H126Q128 338 139.0 364.5Q150 391 169.0 411.0Q188 431 214.5 442.5Q241 454 274 454Q306 454 332.5 442.5Q359 431 378.5 411.5Q398 392 409.5 365.0Q421 338 423 308ZM505 164H421Q410 113 375.5 88.0Q341 63 287 63Q245 63 214.0 77.0Q183 91 163.0 114.5Q143 138 134.0 168.5Q125 199 126 233H513Q515 280 504.5 332.0Q494 384 466.5 428.0Q439 472 393.5 500.5Q348 529 279 529Q226 529 181.5 509.0Q137 489 104.5 453.0Q72 417 54.0 368.0Q36 319 36 260Q38 201 53.5 151.0Q69 101 100.0 65.0Q131 29 176.5 9.0Q222 -11 284 -11Q372 -11 430.0 33.0Q488 77 505 164Z"/><path transform="translate(1390.02,231.21) scale(0.064000,-0.064000)" fill="#E56D2C" d="M83 111V0H194V111Z"/>
</svg>